<svg height="800" viewBox="0 0 304 304" width="800" xmlns="http://www.w3.org/2000/svg"><path d="m211.717 304h-190.219c-11.563 0-20.969-9.406-20.969-20.969v-250.5c0-11.563 9.406-20.969 20.969-20.969h170.599v14h-170.599c-3.843 0-6.969 3.126-6.969 6.969v250.5c0 3.843 3.126 6.969 6.969 6.969h190.219c3.843 0 6.969-3.126 6.969-6.969v-46.313c0-3.843-3.126-6.969-6.969-6.969h-120.563c-11.563 0-20.969-9.406-20.969-20.969v-92.16c0-11.563 9.406-20.969 20.969-20.969h63.817v14h-63.817c-3.843 0-6.969 3.126-6.969 6.969v92.161c0 3.843 3.126 6.969 6.969 6.969h120.563c11.563 0 20.969 9.406 20.969 20.969v46.313c-.001 11.562-9.407 20.968-20.969 20.968z" fill="#5d7486"/><g fill="#d35400"><path d="m185.867 37.125h105.271c6.812 0 12.333-5.522 12.333-12.333v-12.459c0-6.811-5.522-12.333-12.334-12.333h-105.27c-6.812 0-12.333 5.522-12.333 12.333v12.458c-.001 6.812 5.521 12.334 12.333 12.334z"/><path d="m298.452 2.558v4.829c0 6.964-5.646 12.61-12.61 12.61h-104.718c-2.854 0-5.477-.959-7.591-2.558v7.077c0 6.964 5.646 12.61 12.61 12.61h104.718c6.964 0 12.61-5.646 12.61-12.61v-11.906c0-4.111-1.976-7.75-5.019-10.052z" opacity=".45"/><path d="m148.742 121.214h105.271c6.812 0 12.333-5.522 12.333-12.334v-12.458c0-6.812-5.522-12.333-12.333-12.333h-105.271c-6.812 0-12.333 5.522-12.333 12.333v12.458c-.001 6.812 5.521 12.334 12.333 12.334z"/><path d="m261.327 86.647v4.829c0 6.964-5.646 12.61-12.61 12.61h-104.718c-2.854 0-5.477-.959-7.591-2.558v7.077c0 6.964 5.646 12.61 12.61 12.61h104.718c6.964 0 12.61-5.646 12.61-12.61v-11.906c0-4.111-1.976-7.75-5.019-10.052z" opacity=".45"/></g></svg>